<?xml version="1.0" encoding="UTF-8" standalone="no"?>
<svg
   width="85.297501pt"
   version="1.1"
   viewBox="0 0 85.297501 86.350998"
   height="86.350998pt"
   id="svg5"
   sodipodi:docname="Document-1-page001.svg"
   inkscape:version="1.3 (0e150ed6c4, 2023-07-21)"
   xmlns:inkscape="http://www.inkscape.org/namespaces/inkscape"
   xmlns:sodipodi="http://sodipodi.sourceforge.net/DTD/sodipodi-0.dtd"
   xmlns="http://www.w3.org/2000/svg"
   xmlns:svg="http://www.w3.org/2000/svg">
  <sodipodi:namedview
     id="namedview5"
     pagecolor="#505050"
     bordercolor="#eeeeee"
     borderopacity="1"
     inkscape:showpageshadow="0"
     inkscape:pageopacity="0"
     inkscape:pagecheckerboard="0"
     inkscape:deskcolor="#505050"
     inkscape:document-units="pt"
     inkscape:zoom="4.3551349"
     inkscape:cx="39.838031"
     inkscape:cy="48.333749"
     inkscape:window-width="1920"
     inkscape:window-height="1009"
     inkscape:window-x="-8"
     inkscape:window-y="-8"
     inkscape:window-maximized="1"
     inkscape:current-layer="Background" />
  <defs
     id="defs1">
    <clipPath
       id="Clip0">
      <path
         d="M 0,0 H 85.2975 V 86.351 H 0 Z"
         id="path1" />
    </clipPath>
  </defs>
  <g
     inkscape:label="Background"
     inkscape:groupmode="layer"
     id="Background"
     transform="translate(-81,-156.41)">
    <g
       clip-path="url(#Clip0)"
       transform="translate(81,156.41)"
       style="fill:none;stroke:none"
       clip-rule="evenodd"
       id="Group1">
      <path
         d="M 0,86.351 H 4.2523 V 31.846 l 0.0535,-0.037 38.3427,-26.632 0.071,0.05 38.325,26.619 v 54.505 h 4.253 V 29.622 L 42.6485,0 0,29.622 v 56.729"
         style="fill:#ffffff;fill-rule:nonzero;stroke:none"
         id="path2" />
      <path
         transform="translate(12.5011,19.278)"
         d="m 0,41.148 0.0129,3.9941 H 60.2784 V 41.146 l -28.116,0.0012 v -12.266 l 12.363,8.5968 V 32.7222 L 32.1624,24.123 v -6.607 l 12.363,8.595 V 21.338 L 32.1624,12.754 V 6.149 l 12.363,8.627 V 9.994 L 30.1644,0 15.8036,9.994 v 4.782 L 28.1664,6.149 v 6.605 l -0.054,0.037 -12.3088,8.547 v 4.773 l 12.3628,-8.595 v 6.607 l -0.054,0.037 -12.3088,8.5622 v 4.7558 l 12.3628,-8.5968 v 12.266 L 0,41.148"
         style="fill:#ffffff;fill-rule:nonzero;stroke:none"
         id="path3" />
      <path
         transform="translate(12.4437,68.4118)"
         d="m 52.7738,2.63716 -0.073,-0.041 c -2.142,-1.209 -4.357,-2.458997 -6.939,-2.5827972 -0.156,-0.00820003 -0.311,-0.01210003 -0.465,-0.01210003 -2.692,0 -5.135,1.09879723 -7.502,2.16289723 l -0.197,0.0878 c -2.228,0.9571 -4.753,2.0403 -7.4,2.0672 -0.054,8e-4 -0.108,0.0032 -0.162,0.0051 -0.097,0.002 -0.194,0.0051 -0.29,0.0027 C 27.6298,4.25316 25.616,3.49106 23.7563,2.67936 23.3707,2.51016 22.9871,2.34026 22.6071,2.16806 20.0957,1.03916 17.5141,-0.139037 14.6309,0.0133628 12.0504,0.138363 9.8344,1.38716 7.6918,2.59616 l -0.0722,0.041 C 4.9418,4.14496 2.5922,4.76096 0,4.61996 v 3.9852 c 0.0781,0.0031 0.1563,0.005 0.2344,0.0058 l 0.1937,0.0051 c 0.0778,0.0012 0.1547,0.002 0.2317,0.002 2.389,0 4.582,-0.6329 7.0734,-2.0368 2.1512,-1.2121 4.375,-2.466 6.8906,-2.5871 2.7961,-0.141 5.3629,1.0129 7.8481,2.1301 l 0.2352,0.1059 c 2.5078,1.1261 4.6137,1.9929 7.0077,2.0769 0.106,0.0031 0.209,-8e-4 0.312,-0.0027 0.06,-0.0024 0.119,-0.0043 0.179,-0.0051 2.72,-0.0281 5.231,-1.1051 7.448,-2.0551 l 0.268,-0.1199 c 2.482,-1.1172 5.053,-2.2723 7.847,-2.1312 2.516,0.1222 4.74,1.3761 6.891,2.589 2.49,1.4031 4.683,2.0352 7.074,2.0352 0.077,0 0.154,-0.0012 0.233,-0.002 l 0.17,-0.0043 c 0.086,-8e-4 0.171,-0.0027 0.256,-0.0058 v -3.986 c -2.592,0.1399 -4.942,-0.475 -7.619,-1.982"
         style="fill:#ffffff;fill-rule:nonzero;stroke:none"
         id="path4" />
      <path
         transform="translate(12.4437,77.7196)"
         d="m 52.7738,2.6364 -0.073,-0.041 C 50.5588,1.3864 48.3428,0.136403 45.7618,0.0122032 42.8798,-0.132697 40.2958,1.0384 37.7918,2.1646 l -0.194,0.0878 c -2.23,0.9559 -4.755,2.0379 -7.4,2.0649 -0.052,0.0012 -0.104,0.0031 -0.156,0.0051 -0.099,0.0031 -0.199,0.007 -0.297,0.0031 C 27.6288,4.2524 25.6156,3.4896 23.7559,2.6774 23.3707,2.5095 22.9871,2.3396 22.6071,2.1685 20.0946,1.0384 17.5153,-0.129597 14.6309,0.0122032 12.0504,0.136403 9.8344,1.3864 7.6918,2.5942 L 7.6192,2.6364 C 4.9434,4.1435 2.5836,4.7556 0,4.6185 v 3.9859 c 0.0883,0.0031 0.177,0.0051 0.2653,0.0059 l 0.1625,0.0043 c 2.4789,0.041 4.7351,-0.5852 7.3054,-2.034 2.1504,-1.2121 4.3742,-2.466 6.8906,-2.5883 2.802,-0.1359 5.3645,1.0133 7.8481,2.1312 l 0.2352,0.1059 c 2.5078,1.1262 4.6137,1.993 7.0077,2.077 0.106,0.0031 0.209,0 0.312,-0.0032 0.06,-0.0019 0.119,-0.0039 0.179,-0.0047 2.72,-0.0281 5.231,-1.1062 7.448,-2.0562 l 0.268,-0.1188 c 2.342,-1.055 4.761,-2.1429 7.376,-2.1429 0.156,0 0.313,0.0039 0.472,0.0117 2.514,0.1211 4.738,1.375 6.889,2.5883 2.491,1.4027 4.684,2.0347 7.075,2.0347 0.077,0 0.154,-7e-4 0.233,-0.0019 l 0.17,-0.0039 c 0.086,-0.0012 0.171,-0.0031 0.256,-0.0051 V 4.6185 c -2.581,0.139 -4.941,-0.475 -7.619,-1.9821"
         style="fill:#ffffff;fill-rule:nonzero;stroke:none"
         id="path5" />
    </g>
  </g>
</svg>
