<?xml version="1.0" encoding="UTF-8" standalone="no"?>
<!-- Created with Inkscape (http://www.inkscape.org/) -->

<svg
   version="1.1"
   id="svg2"
   width="113.73"
   height="115.13467"
   viewBox="0 0 113.73 115.13467"
   sodipodi:docname="Icone_Noir.svg"
   inkscape:version="1.2.2 (732a01da63, 2022-12-09)"
   xmlns:inkscape="http://www.inkscape.org/namespaces/inkscape"
   xmlns:sodipodi="http://sodipodi.sourceforge.net/DTD/sodipodi-0.dtd"
   xmlns="http://www.w3.org/2000/svg"
   xmlns:svg="http://www.w3.org/2000/svg">
  <defs
     id="defs6" />
  <sodipodi:namedview
     id="namedview4"
     pagecolor="#505050"
     bordercolor="#eeeeee"
     borderopacity="1"
     inkscape:showpageshadow="0"
     inkscape:pageopacity="0"
     inkscape:pagecheckerboard="0"
     inkscape:deskcolor="#505050"
     showgrid="false"
     inkscape:zoom="3.6924736"
     inkscape:cx="-8.9370983"
     inkscape:cy="57.414086"
     inkscape:window-width="2560"
     inkscape:window-height="1377"
     inkscape:window-x="1072"
     inkscape:window-y="-8"
     inkscape:window-maximized="1"
     inkscape:current-layer="g10">
    <inkscape:page
       x="0"
       y="0"
       id="page8"
       width="113.73"
       height="115.13467" />
  </sodipodi:namedview>
  <g
     id="g10"
     inkscape:groupmode="layer"
     inkscape:label="Page 1"
     transform="matrix(1.3333333,0,0,-1.3333333,-82.173998,196.632)">
    <g
       id="g12"
       transform="scale(0.1)">
      <path
         d="m 616.305,611.23 h 42.523 v 545.05 l 0.535,0.37 383.427,266.32 0.71,-0.5 383.25,-266.19 V 611.23 h 42.53 v 567.29 L 1042.79,1474.74 616.305,1178.52 V 611.23"
         style="fill:#040606;fill-opacity:1;fill-rule:nonzero;stroke:none"
         id="path14" />
      <path
         d="m 741.316,870.48 0.129,-39.941 H 1344.1 V 870.5 l -281.16,-0.012 v 122.66 l 123.63,-85.968 v 47.558 l -123.63,85.992 v 66.07 l 123.63,-85.95 v 47.73 l -123.63,85.84 v 66.05 l 123.63,-86.27 v 47.82 l -143.61,99.94 -143.608,-99.94 v -47.82 l 123.628,86.27 v -66.05 l -0.54,-0.37 -123.088,-85.47 v -47.73 l 123.628,85.95 v -66.07 l -0.54,-0.37 -123.088,-85.622 V 907.18 l 123.628,85.968 V 870.488 L 741.316,870.48"
         style="fill:#040606;fill-opacity:1;fill-rule:nonzero;stroke:none"
         id="path16" />
      <path
         d="m 1268.48,764.25 -0.73,0.41 c -21.42,12.09 -43.57,24.59 -69.39,25.828 -1.56,0.082 -3.11,0.121 -4.65,0.121 -26.92,0 -51.35,-10.988 -75.02,-21.629 l -1.97,-0.878 c -22.28,-9.571 -47.53,-20.403 -74,-20.672 -0.54,-0.008 -1.08,-0.032 -1.62,-0.051 -0.97,-0.02 -1.94,-0.051 -2.9,-0.027 -21.16,0.738 -41.298,8.359 -59.895,16.476 -3.856,1.692 -7.692,3.391 -11.492,5.113 -25.114,11.289 -50.93,23.071 -79.762,21.547 -25.805,-1.25 -47.965,-13.738 -69.391,-25.828 l -0.722,-0.41 C 790.16,749.172 766.664,743.012 740.742,744.422 V 704.57 c 0.781,-0.031 1.563,-0.05 2.344,-0.058 l 1.937,-0.051 c 0.778,-0.012 1.547,-0.02 2.317,-0.02 23.89,0 45.82,6.329 70.734,20.368 21.512,12.121 43.75,24.66 68.906,25.871 27.961,1.41 53.629,-10.129 78.481,-21.301 l 2.352,-1.059 c 25.078,-11.261 46.137,-19.929 70.077,-20.769 1.06,-0.031 2.09,0.008 3.12,0.027 0.6,0.024 1.19,0.043 1.79,0.051 27.2,0.281 52.31,11.051 74.48,20.551 l 2.68,1.199 c 24.82,11.172 50.53,22.723 78.47,21.312 25.16,-1.222 47.4,-13.761 68.91,-25.89 24.9,-14.031 46.83,-20.352 70.74,-20.352 0.77,0 1.54,0.012 2.33,0.02 l 1.7,0.043 c 0.86,0.008 1.71,0.027 2.56,0.058 v 39.86 c -25.92,-1.399 -49.42,4.75 -76.19,19.82"
         style="fill:#040606;fill-opacity:1;fill-rule:nonzero;stroke:none"
         id="path18" />
      <path
         d="m 1268.48,671.18 -0.73,0.41 c -21.42,12.09 -43.58,24.59 -69.39,25.832 -28.82,1.449 -54.66,-10.262 -79.7,-21.524 l -1.94,-0.878 c -22.3,-9.559 -47.55,-20.379 -74,-20.649 -0.52,-0.012 -1.04,-0.031 -1.56,-0.051 -0.99,-0.031 -1.99,-0.07 -2.97,-0.031 -21.16,0.731 -41.292,8.359 -59.889,16.481 -3.852,1.679 -7.688,3.378 -11.488,5.089 -25.125,11.301 -50.918,22.981 -79.762,21.563 -25.805,-1.242 -47.965,-13.742 -69.391,-25.82 l -0.726,-0.422 C 790.176,656.109 766.578,649.988 740.742,651.359 V 611.5 c 0.883,-0.031 1.77,-0.051 2.653,-0.059 l 1.625,-0.043 c 24.789,-0.41 47.351,5.852 73.054,20.34 21.504,12.121 43.742,24.66 68.906,25.883 28.02,1.359 53.645,-10.133 78.481,-21.312 l 2.352,-1.059 c 25.078,-11.262 46.137,-19.93 70.077,-20.77 1.06,-0.031 2.09,0 3.12,0.032 0.6,0.019 1.19,0.039 1.79,0.047 27.2,0.281 52.31,11.062 74.48,20.562 l 2.68,1.188 c 23.42,10.55 47.61,21.429 73.76,21.429 1.56,0 3.13,-0.039 4.72,-0.117 25.14,-1.211 47.38,-13.75 68.89,-25.883 24.91,-14.027 46.84,-20.347 70.75,-20.347 0.77,0 1.54,0.007 2.33,0.019 l 1.7,0.039 c 0.86,0.012 1.71,0.031 2.56,0.051 v 39.859 c -25.81,-1.39 -49.41,4.75 -76.19,19.821"
         style="fill:#040606;fill-opacity:1;fill-rule:nonzero;stroke:none"
         id="path20" />
    </g>
  </g>
</svg>
